<mxfile host="app.diagrams.net" agent="Mozilla/5.0 (Windows NT 10.0; Win64; x64) AppleWebKit/537.36 (KHTML, like Gecko) Chrome/137.0.0.0 Safari/537.36" version="27.1.5">
  <diagram name="Page-1" id="25SS0v0TBwh7kEfDEy2a">
    <mxGraphModel dx="2605" dy="1803" grid="1" gridSize="10" guides="1" tooltips="1" connect="1" arrows="1" fold="1" page="0" pageScale="1" pageWidth="1654" pageHeight="1169" math="0" shadow="0">
      <root>
        <mxCell id="0" />
        <mxCell id="1" parent="0" />
        <mxCell id="z0W3k5TJHpG6s-W8FYQL-1" value="" style="shape=actor;whiteSpace=wrap;html=1;" vertex="1" parent="1">
          <mxGeometry x="40" y="-50" width="40" height="50" as="geometry" />
        </mxCell>
        <mxCell id="z0W3k5TJHpG6s-W8FYQL-2" value="" style="shape=actor;whiteSpace=wrap;html=1;fillColor=#dae8fc;strokeColor=#6c8ebf;" vertex="1" parent="1">
          <mxGeometry x="360" y="-50" width="40" height="50" as="geometry" />
        </mxCell>
        <mxCell id="z0W3k5TJHpG6s-W8FYQL-3" value="Request" style="rounded=0;whiteSpace=wrap;html=1;" vertex="1" parent="1">
          <mxGeometry x="160" y="-40" width="120" height="40" as="geometry" />
        </mxCell>
        <mxCell id="z0W3k5TJHpG6s-W8FYQL-4" value="" style="shape=actor;whiteSpace=wrap;html=1;fillColor=#d5e8d4;strokeColor=#82b366;" vertex="1" parent="1">
          <mxGeometry x="680" y="-50" width="40" height="50" as="geometry" />
        </mxCell>
        <mxCell id="z0W3k5TJHpG6s-W8FYQL-5" value="Release Contents" style="rounded=0;whiteSpace=wrap;html=1;" vertex="1" parent="1">
          <mxGeometry x="480" y="-40" width="120" height="40" as="geometry" />
        </mxCell>
        <mxCell id="z0W3k5TJHpG6s-W8FYQL-7" value="Coding" style="rounded=0;whiteSpace=wrap;html=1;" vertex="1" parent="1">
          <mxGeometry x="640" y="120" width="120" height="40" as="geometry" />
        </mxCell>
        <mxCell id="z0W3k5TJHpG6s-W8FYQL-10" value="STG Release" style="rounded=0;whiteSpace=wrap;html=1;" vertex="1" parent="1">
          <mxGeometry x="640" y="200" width="120" height="40" as="geometry" />
        </mxCell>
        <mxCell id="z0W3k5TJHpG6s-W8FYQL-11" value="Need SRE?" style="rhombus;whiteSpace=wrap;html=1;" vertex="1" parent="1">
          <mxGeometry x="650" y="280" width="100" height="100" as="geometry" />
        </mxCell>
        <mxCell id="z0W3k5TJHpG6s-W8FYQL-13" value="MicroCMS Modify Release" style="rounded=0;whiteSpace=wrap;html=1;" vertex="1" parent="1">
          <mxGeometry x="640" y="420" width="120" height="40" as="geometry" />
        </mxCell>
        <mxCell id="z0W3k5TJHpG6s-W8FYQL-14" value="HTML File Release" style="rounded=0;whiteSpace=wrap;html=1;" vertex="1" parent="1">
          <mxGeometry x="800" y="310" width="123" height="40" as="geometry" />
        </mxCell>
        <mxCell id="z0W3k5TJHpG6s-W8FYQL-16" value="Check Request" style="rounded=0;whiteSpace=wrap;html=1;" vertex="1" parent="1">
          <mxGeometry x="480" y="420" width="120" height="40" as="geometry" />
        </mxCell>
        <mxCell id="z0W3k5TJHpG6s-W8FYQL-17" value="" style="endArrow=none;html=1;rounded=0;entryX=0.5;entryY=1;entryDx=0;entryDy=0;" edge="1" parent="1" target="z0W3k5TJHpG6s-W8FYQL-2">
          <mxGeometry width="50" height="50" relative="1" as="geometry">
            <mxPoint x="380" y="1120" as="sourcePoint" />
            <mxPoint x="380" y="10" as="targetPoint" />
          </mxGeometry>
        </mxCell>
        <mxCell id="z0W3k5TJHpG6s-W8FYQL-18" value="" style="endArrow=none;html=1;rounded=0;entryX=0.5;entryY=1;entryDx=0;entryDy=0;" edge="1" parent="1" target="z0W3k5TJHpG6s-W8FYQL-1">
          <mxGeometry width="50" height="50" relative="1" as="geometry">
            <mxPoint x="60" y="1120" as="sourcePoint" />
            <mxPoint x="59.5" y="90" as="targetPoint" />
          </mxGeometry>
        </mxCell>
        <mxCell id="z0W3k5TJHpG6s-W8FYQL-19" value="Check Request" style="rounded=0;whiteSpace=wrap;html=1;" vertex="1" parent="1">
          <mxGeometry x="160" y="420" width="120" height="40" as="geometry" />
        </mxCell>
        <mxCell id="z0W3k5TJHpG6s-W8FYQL-20" value="Confirm STG Release" style="rounded=0;whiteSpace=wrap;html=1;" vertex="1" parent="1">
          <mxGeometry x="160" y="530" width="120" height="40" as="geometry" />
        </mxCell>
        <mxCell id="z0W3k5TJHpG6s-W8FYQL-21" value="Confirm STG Release" style="rounded=0;whiteSpace=wrap;html=1;" vertex="1" parent="1">
          <mxGeometry x="480" y="530" width="120" height="40" as="geometry" />
        </mxCell>
        <mxCell id="z0W3k5TJHpG6s-W8FYQL-23" value="Need SRE?" style="rhombus;whiteSpace=wrap;html=1;" vertex="1" parent="1">
          <mxGeometry x="650" y="720" width="100" height="100" as="geometry" />
        </mxCell>
        <mxCell id="z0W3k5TJHpG6s-W8FYQL-24" value="Need Fix?" style="rhombus;whiteSpace=wrap;html=1;" vertex="1" parent="1">
          <mxGeometry x="650" y="500" width="100" height="100" as="geometry" />
        </mxCell>
        <mxCell id="z0W3k5TJHpG6s-W8FYQL-25" value="PRD Release" style="rounded=0;whiteSpace=wrap;html=1;" vertex="1" parent="1">
          <mxGeometry x="640" y="640" width="120" height="40" as="geometry" />
        </mxCell>
        <mxCell id="z0W3k5TJHpG6s-W8FYQL-26" value="HTML File Release" style="rounded=0;whiteSpace=wrap;html=1;" vertex="1" parent="1">
          <mxGeometry x="800" y="750" width="123" height="40" as="geometry" />
        </mxCell>
        <mxCell id="z0W3k5TJHpG6s-W8FYQL-27" value="MicroCMS Modify Release" style="rounded=0;whiteSpace=wrap;html=1;" vertex="1" parent="1">
          <mxGeometry x="640" y="860" width="120" height="40" as="geometry" />
        </mxCell>
        <mxCell id="z0W3k5TJHpG6s-W8FYQL-28" value="Check Request" style="rounded=0;whiteSpace=wrap;html=1;" vertex="1" parent="1">
          <mxGeometry x="480" y="860" width="120" height="40" as="geometry" />
        </mxCell>
        <mxCell id="z0W3k5TJHpG6s-W8FYQL-29" value="Check Request" style="rounded=0;whiteSpace=wrap;html=1;" vertex="1" parent="1">
          <mxGeometry x="160" y="860" width="120" height="40" as="geometry" />
        </mxCell>
        <mxCell id="z0W3k5TJHpG6s-W8FYQL-30" value="Confirm PRD Release" style="rounded=0;whiteSpace=wrap;html=1;" vertex="1" parent="1">
          <mxGeometry x="160" y="970" width="120" height="40" as="geometry" />
        </mxCell>
        <mxCell id="z0W3k5TJHpG6s-W8FYQL-31" value="Confirm PRD Release" style="rounded=0;whiteSpace=wrap;html=1;" vertex="1" parent="1">
          <mxGeometry x="480" y="970" width="120" height="40" as="geometry" />
        </mxCell>
        <mxCell id="z0W3k5TJHpG6s-W8FYQL-32" value="Need Fix?" style="rhombus;whiteSpace=wrap;html=1;" vertex="1" parent="1">
          <mxGeometry x="650" y="940" width="100" height="100" as="geometry" />
        </mxCell>
        <mxCell id="z0W3k5TJHpG6s-W8FYQL-34" value="" style="endArrow=block;html=1;rounded=0;endFill=0;entryX=0;entryY=0.5;entryDx=0;entryDy=0;" edge="1" parent="1" target="z0W3k5TJHpG6s-W8FYQL-3">
          <mxGeometry width="50" height="50" relative="1" as="geometry">
            <mxPoint x="80" y="-20" as="sourcePoint" />
            <mxPoint x="150" y="-20" as="targetPoint" />
          </mxGeometry>
        </mxCell>
        <mxCell id="z0W3k5TJHpG6s-W8FYQL-35" value="" style="endArrow=block;html=1;rounded=0;endFill=0;entryX=0;entryY=0.5;entryDx=0;entryDy=0;" edge="1" parent="1">
          <mxGeometry width="50" height="50" relative="1" as="geometry">
            <mxPoint x="280" y="-20.53" as="sourcePoint" />
            <mxPoint x="360" y="-20.53" as="targetPoint" />
          </mxGeometry>
        </mxCell>
        <mxCell id="z0W3k5TJHpG6s-W8FYQL-36" value="" style="endArrow=block;html=1;rounded=0;endFill=0;entryX=0;entryY=0.5;entryDx=0;entryDy=0;" edge="1" parent="1">
          <mxGeometry width="50" height="50" relative="1" as="geometry">
            <mxPoint x="400" y="-20.53" as="sourcePoint" />
            <mxPoint x="480" y="-20.53" as="targetPoint" />
          </mxGeometry>
        </mxCell>
        <mxCell id="z0W3k5TJHpG6s-W8FYQL-37" value="" style="endArrow=block;html=1;rounded=0;endFill=0;entryX=0;entryY=0.5;entryDx=0;entryDy=0;" edge="1" parent="1">
          <mxGeometry width="50" height="50" relative="1" as="geometry">
            <mxPoint x="600" y="-20.53" as="sourcePoint" />
            <mxPoint x="680" y="-20.53" as="targetPoint" />
          </mxGeometry>
        </mxCell>
        <mxCell id="z0W3k5TJHpG6s-W8FYQL-40" value="" style="endArrow=block;html=1;rounded=0;endFill=0;" edge="1" parent="1">
          <mxGeometry width="50" height="50" relative="1" as="geometry">
            <mxPoint x="699.47" y="160" as="sourcePoint" />
            <mxPoint x="699.47" y="200" as="targetPoint" />
          </mxGeometry>
        </mxCell>
        <mxCell id="z0W3k5TJHpG6s-W8FYQL-41" value="" style="endArrow=block;html=1;rounded=0;endFill=0;" edge="1" parent="1">
          <mxGeometry width="50" height="50" relative="1" as="geometry">
            <mxPoint x="699.47" y="240" as="sourcePoint" />
            <mxPoint x="699.47" y="280" as="targetPoint" />
          </mxGeometry>
        </mxCell>
        <mxCell id="z0W3k5TJHpG6s-W8FYQL-42" value="" style="endArrow=block;html=1;rounded=0;endFill=0;" edge="1" parent="1">
          <mxGeometry width="50" height="50" relative="1" as="geometry">
            <mxPoint x="699.47" y="380" as="sourcePoint" />
            <mxPoint x="699.47" y="420" as="targetPoint" />
          </mxGeometry>
        </mxCell>
        <mxCell id="z0W3k5TJHpG6s-W8FYQL-43" value="" style="endArrow=block;html=1;rounded=0;endFill=0;" edge="1" parent="1">
          <mxGeometry width="50" height="50" relative="1" as="geometry">
            <mxPoint x="699.47" y="460" as="sourcePoint" />
            <mxPoint x="699.47" y="500" as="targetPoint" />
          </mxGeometry>
        </mxCell>
        <mxCell id="z0W3k5TJHpG6s-W8FYQL-44" value="" style="endArrow=block;html=1;rounded=0;endFill=0;exitX=0;exitY=0.5;exitDx=0;exitDy=0;entryX=1;entryY=0.5;entryDx=0;entryDy=0;" edge="1" parent="1" source="z0W3k5TJHpG6s-W8FYQL-13" target="z0W3k5TJHpG6s-W8FYQL-16">
          <mxGeometry width="50" height="50" relative="1" as="geometry">
            <mxPoint x="800" y="460" as="sourcePoint" />
            <mxPoint x="800" y="500" as="targetPoint" />
          </mxGeometry>
        </mxCell>
        <mxCell id="z0W3k5TJHpG6s-W8FYQL-45" value="" style="endArrow=block;html=1;rounded=0;endFill=0;exitX=0;exitY=0.5;exitDx=0;exitDy=0;" edge="1" parent="1" source="z0W3k5TJHpG6s-W8FYQL-16">
          <mxGeometry width="50" height="50" relative="1" as="geometry">
            <mxPoint x="870" y="420" as="sourcePoint" />
            <mxPoint x="380" y="440" as="targetPoint" />
          </mxGeometry>
        </mxCell>
        <mxCell id="z0W3k5TJHpG6s-W8FYQL-46" value="" style="endArrow=block;html=1;rounded=0;endFill=0;exitX=0;exitY=0.5;exitDx=0;exitDy=0;" edge="1" parent="1">
          <mxGeometry width="50" height="50" relative="1" as="geometry">
            <mxPoint x="380" y="439.47" as="sourcePoint" />
            <mxPoint x="280" y="439.47" as="targetPoint" />
          </mxGeometry>
        </mxCell>
        <mxCell id="z0W3k5TJHpG6s-W8FYQL-47" value="" style="endArrow=block;html=1;rounded=0;endFill=0;exitX=0;exitY=0.5;exitDx=0;exitDy=0;" edge="1" parent="1">
          <mxGeometry width="50" height="50" relative="1" as="geometry">
            <mxPoint x="160" y="439.47" as="sourcePoint" />
            <mxPoint x="60" y="439.47" as="targetPoint" />
          </mxGeometry>
        </mxCell>
        <mxCell id="z0W3k5TJHpG6s-W8FYQL-48" value="" style="endArrow=block;html=1;rounded=0;endFill=0;entryX=0;entryY=0.5;entryDx=0;entryDy=0;" edge="1" parent="1" target="z0W3k5TJHpG6s-W8FYQL-20">
          <mxGeometry width="50" height="50" relative="1" as="geometry">
            <mxPoint x="60" y="550" as="sourcePoint" />
            <mxPoint x="300" y="350" as="targetPoint" />
          </mxGeometry>
        </mxCell>
        <mxCell id="z0W3k5TJHpG6s-W8FYQL-50" value="" style="endArrow=block;html=1;rounded=0;endFill=0;entryX=0;entryY=0.5;entryDx=0;entryDy=0;" edge="1" parent="1">
          <mxGeometry width="50" height="50" relative="1" as="geometry">
            <mxPoint x="280" y="549.47" as="sourcePoint" />
            <mxPoint x="380" y="549.47" as="targetPoint" />
          </mxGeometry>
        </mxCell>
        <mxCell id="z0W3k5TJHpG6s-W8FYQL-51" value="" style="endArrow=block;html=1;rounded=0;endFill=0;entryX=0;entryY=0.5;entryDx=0;entryDy=0;" edge="1" parent="1">
          <mxGeometry width="50" height="50" relative="1" as="geometry">
            <mxPoint x="380" y="549.47" as="sourcePoint" />
            <mxPoint x="480" y="549.47" as="targetPoint" />
          </mxGeometry>
        </mxCell>
        <mxCell id="z0W3k5TJHpG6s-W8FYQL-52" value="" style="endArrow=block;html=1;rounded=0;endFill=0;exitX=1;exitY=0.5;exitDx=0;exitDy=0;entryX=0;entryY=0.5;entryDx=0;entryDy=0;" edge="1" parent="1" source="z0W3k5TJHpG6s-W8FYQL-21" target="z0W3k5TJHpG6s-W8FYQL-24">
          <mxGeometry width="50" height="50" relative="1" as="geometry">
            <mxPoint x="660" y="510" as="sourcePoint" />
            <mxPoint x="620" y="510" as="targetPoint" />
          </mxGeometry>
        </mxCell>
        <mxCell id="z0W3k5TJHpG6s-W8FYQL-53" value="" style="endArrow=block;html=1;rounded=0;endFill=0;exitX=1;exitY=0.5;exitDx=0;exitDy=0;entryX=1;entryY=0.5;entryDx=0;entryDy=0;" edge="1" parent="1" source="z0W3k5TJHpG6s-W8FYQL-24" target="z0W3k5TJHpG6s-W8FYQL-10">
          <mxGeometry width="50" height="50" relative="1" as="geometry">
            <mxPoint x="870" y="530" as="sourcePoint" />
            <mxPoint x="830" y="530" as="targetPoint" />
            <Array as="points">
              <mxPoint x="960" y="550" />
              <mxPoint x="960" y="220" />
            </Array>
          </mxGeometry>
        </mxCell>
        <mxCell id="z0W3k5TJHpG6s-W8FYQL-55" value="" style="endArrow=block;html=1;rounded=0;endFill=0;exitX=1;exitY=0.5;exitDx=0;exitDy=0;entryX=0;entryY=0.5;entryDx=0;entryDy=0;" edge="1" parent="1" source="z0W3k5TJHpG6s-W8FYQL-11" target="z0W3k5TJHpG6s-W8FYQL-14">
          <mxGeometry width="50" height="50" relative="1" as="geometry">
            <mxPoint x="870" y="420" as="sourcePoint" />
            <mxPoint x="830" y="420" as="targetPoint" />
          </mxGeometry>
        </mxCell>
        <mxCell id="z0W3k5TJHpG6s-W8FYQL-56" value="Done" style="rounded=1;whiteSpace=wrap;html=1;" vertex="1" parent="1">
          <mxGeometry x="640" y="1080" width="120" height="40" as="geometry" />
        </mxCell>
        <mxCell id="z0W3k5TJHpG6s-W8FYQL-57" value="" style="endArrow=block;html=1;rounded=0;endFill=0;" edge="1" parent="1">
          <mxGeometry width="50" height="50" relative="1" as="geometry">
            <mxPoint x="699.38" y="600" as="sourcePoint" />
            <mxPoint x="699.38" y="640" as="targetPoint" />
          </mxGeometry>
        </mxCell>
        <mxCell id="z0W3k5TJHpG6s-W8FYQL-58" value="" style="endArrow=block;html=1;rounded=0;endFill=0;" edge="1" parent="1">
          <mxGeometry width="50" height="50" relative="1" as="geometry">
            <mxPoint x="699.38" y="680" as="sourcePoint" />
            <mxPoint x="699.38" y="720" as="targetPoint" />
          </mxGeometry>
        </mxCell>
        <mxCell id="z0W3k5TJHpG6s-W8FYQL-59" value="" style="endArrow=block;html=1;rounded=0;endFill=0;" edge="1" parent="1">
          <mxGeometry width="50" height="50" relative="1" as="geometry">
            <mxPoint x="699.38" y="820" as="sourcePoint" />
            <mxPoint x="699.38" y="860" as="targetPoint" />
          </mxGeometry>
        </mxCell>
        <mxCell id="z0W3k5TJHpG6s-W8FYQL-60" value="" style="endArrow=block;html=1;rounded=0;endFill=0;" edge="1" parent="1">
          <mxGeometry width="50" height="50" relative="1" as="geometry">
            <mxPoint x="699.38" y="900" as="sourcePoint" />
            <mxPoint x="699.38" y="940" as="targetPoint" />
          </mxGeometry>
        </mxCell>
        <mxCell id="z0W3k5TJHpG6s-W8FYQL-61" value="" style="endArrow=block;html=1;rounded=0;endFill=0;" edge="1" parent="1">
          <mxGeometry width="50" height="50" relative="1" as="geometry">
            <mxPoint x="699.38" y="1040" as="sourcePoint" />
            <mxPoint x="699.38" y="1080" as="targetPoint" />
          </mxGeometry>
        </mxCell>
        <mxCell id="z0W3k5TJHpG6s-W8FYQL-62" value="" style="endArrow=block;html=1;rounded=0;endFill=0;exitX=1;exitY=0.5;exitDx=0;exitDy=0;entryX=1;entryY=0.5;entryDx=0;entryDy=0;" edge="1" parent="1" source="z0W3k5TJHpG6s-W8FYQL-32" target="z0W3k5TJHpG6s-W8FYQL-25">
          <mxGeometry width="50" height="50" relative="1" as="geometry">
            <mxPoint x="910" y="980" as="sourcePoint" />
            <mxPoint x="910" y="1020" as="targetPoint" />
            <Array as="points">
              <mxPoint x="960" y="990" />
              <mxPoint x="960" y="660" />
            </Array>
          </mxGeometry>
        </mxCell>
        <mxCell id="z0W3k5TJHpG6s-W8FYQL-63" value="" style="endArrow=block;html=1;rounded=0;endFill=0;exitX=0.5;exitY=1;exitDx=0;exitDy=0;entryX=1;entryY=0.5;entryDx=0;entryDy=0;" edge="1" parent="1" source="z0W3k5TJHpG6s-W8FYQL-14" target="z0W3k5TJHpG6s-W8FYQL-13">
          <mxGeometry width="50" height="50" relative="1" as="geometry">
            <mxPoint x="840" y="400" as="sourcePoint" />
            <mxPoint x="890" y="400" as="targetPoint" />
            <Array as="points">
              <mxPoint x="862" y="440" />
            </Array>
          </mxGeometry>
        </mxCell>
        <mxCell id="z0W3k5TJHpG6s-W8FYQL-64" value="" style="endArrow=block;html=1;rounded=0;endFill=0;entryX=1;entryY=0.5;entryDx=0;entryDy=0;exitX=0;exitY=0.5;exitDx=0;exitDy=0;" edge="1" parent="1" source="z0W3k5TJHpG6s-W8FYQL-27" target="z0W3k5TJHpG6s-W8FYQL-28">
          <mxGeometry width="50" height="50" relative="1" as="geometry">
            <mxPoint x="840" y="890" as="sourcePoint" />
            <mxPoint x="840" y="930" as="targetPoint" />
          </mxGeometry>
        </mxCell>
        <mxCell id="z0W3k5TJHpG6s-W8FYQL-65" value="" style="endArrow=block;html=1;rounded=0;endFill=0;exitX=0;exitY=0.5;exitDx=0;exitDy=0;" edge="1" parent="1" source="z0W3k5TJHpG6s-W8FYQL-28">
          <mxGeometry width="50" height="50" relative="1" as="geometry">
            <mxPoint x="870" y="890" as="sourcePoint" />
            <mxPoint x="380" y="880" as="targetPoint" />
          </mxGeometry>
        </mxCell>
        <mxCell id="z0W3k5TJHpG6s-W8FYQL-66" value="" style="endArrow=block;html=1;rounded=0;endFill=0;exitX=0;exitY=0.5;exitDx=0;exitDy=0;" edge="1" parent="1">
          <mxGeometry width="50" height="50" relative="1" as="geometry">
            <mxPoint x="380" y="879.38" as="sourcePoint" />
            <mxPoint x="280" y="879.38" as="targetPoint" />
          </mxGeometry>
        </mxCell>
        <mxCell id="z0W3k5TJHpG6s-W8FYQL-67" value="" style="endArrow=block;html=1;rounded=0;endFill=0;exitX=0;exitY=0.5;exitDx=0;exitDy=0;" edge="1" parent="1">
          <mxGeometry width="50" height="50" relative="1" as="geometry">
            <mxPoint x="160" y="879.38" as="sourcePoint" />
            <mxPoint x="60" y="879.38" as="targetPoint" />
          </mxGeometry>
        </mxCell>
        <mxCell id="z0W3k5TJHpG6s-W8FYQL-68" value="" style="endArrow=block;html=1;rounded=0;endFill=0;entryX=0;entryY=0.5;entryDx=0;entryDy=0;" edge="1" parent="1">
          <mxGeometry width="50" height="50" relative="1" as="geometry">
            <mxPoint x="60" y="989.38" as="sourcePoint" />
            <mxPoint x="160" y="989.38" as="targetPoint" />
          </mxGeometry>
        </mxCell>
        <mxCell id="z0W3k5TJHpG6s-W8FYQL-69" value="" style="endArrow=block;html=1;rounded=0;endFill=0;entryX=0;entryY=0.5;entryDx=0;entryDy=0;" edge="1" parent="1">
          <mxGeometry width="50" height="50" relative="1" as="geometry">
            <mxPoint x="280" y="989.38" as="sourcePoint" />
            <mxPoint x="380" y="989.38" as="targetPoint" />
          </mxGeometry>
        </mxCell>
        <mxCell id="z0W3k5TJHpG6s-W8FYQL-70" value="" style="endArrow=block;html=1;rounded=0;endFill=0;entryX=0;entryY=0.5;entryDx=0;entryDy=0;" edge="1" parent="1">
          <mxGeometry width="50" height="50" relative="1" as="geometry">
            <mxPoint x="380" y="989.38" as="sourcePoint" />
            <mxPoint x="480" y="989.38" as="targetPoint" />
          </mxGeometry>
        </mxCell>
        <mxCell id="z0W3k5TJHpG6s-W8FYQL-72" value="" style="endArrow=block;html=1;rounded=0;endFill=0;exitX=1;exitY=0.5;exitDx=0;exitDy=0;entryX=0;entryY=0.5;entryDx=0;entryDy=0;" edge="1" parent="1">
          <mxGeometry width="50" height="50" relative="1" as="geometry">
            <mxPoint x="600" y="989.38" as="sourcePoint" />
            <mxPoint x="650" y="989.38" as="targetPoint" />
          </mxGeometry>
        </mxCell>
        <mxCell id="z0W3k5TJHpG6s-W8FYQL-73" value="" style="endArrow=block;html=1;rounded=0;endFill=0;exitX=1;exitY=0.5;exitDx=0;exitDy=0;entryX=0;entryY=0.5;entryDx=0;entryDy=0;" edge="1" parent="1">
          <mxGeometry width="50" height="50" relative="1" as="geometry">
            <mxPoint x="750" y="769.37" as="sourcePoint" />
            <mxPoint x="800" y="769.37" as="targetPoint" />
          </mxGeometry>
        </mxCell>
        <mxCell id="z0W3k5TJHpG6s-W8FYQL-74" value="" style="endArrow=block;html=1;rounded=0;endFill=0;exitX=0.5;exitY=1;exitDx=0;exitDy=0;entryX=1;entryY=0.5;entryDx=0;entryDy=0;" edge="1" parent="1" source="z0W3k5TJHpG6s-W8FYQL-26" target="z0W3k5TJHpG6s-W8FYQL-27">
          <mxGeometry width="50" height="50" relative="1" as="geometry">
            <mxPoint x="830" y="860" as="sourcePoint" />
            <mxPoint x="880" y="860" as="targetPoint" />
            <Array as="points">
              <mxPoint x="860" y="880" />
            </Array>
          </mxGeometry>
        </mxCell>
        <mxCell id="z0W3k5TJHpG6s-W8FYQL-75" value="No" style="text;html=1;align=center;verticalAlign=middle;resizable=0;points=[];autosize=1;strokeColor=none;fillColor=none;" vertex="1" parent="1">
          <mxGeometry x="690" y="380" width="40" height="30" as="geometry" />
        </mxCell>
        <mxCell id="z0W3k5TJHpG6s-W8FYQL-76" value="Yes" style="text;html=1;align=center;verticalAlign=middle;resizable=0;points=[];autosize=1;strokeColor=none;fillColor=none;" vertex="1" parent="1">
          <mxGeometry x="750" y="310" width="40" height="30" as="geometry" />
        </mxCell>
        <mxCell id="z0W3k5TJHpG6s-W8FYQL-77" value="No" style="text;html=1;align=center;verticalAlign=middle;resizable=0;points=[];autosize=1;strokeColor=none;fillColor=none;" vertex="1" parent="1">
          <mxGeometry x="690" y="600" width="40" height="30" as="geometry" />
        </mxCell>
        <mxCell id="z0W3k5TJHpG6s-W8FYQL-78" value="Yes" style="text;html=1;align=center;verticalAlign=middle;resizable=0;points=[];autosize=1;strokeColor=none;fillColor=none;" vertex="1" parent="1">
          <mxGeometry x="820" y="530" width="40" height="30" as="geometry" />
        </mxCell>
        <mxCell id="z0W3k5TJHpG6s-W8FYQL-79" value="No" style="text;html=1;align=center;verticalAlign=middle;resizable=0;points=[];autosize=1;strokeColor=none;fillColor=none;" vertex="1" parent="1">
          <mxGeometry x="690" y="820" width="40" height="30" as="geometry" />
        </mxCell>
        <mxCell id="z0W3k5TJHpG6s-W8FYQL-80" value="Yes" style="text;html=1;align=center;verticalAlign=middle;resizable=0;points=[];autosize=1;strokeColor=none;fillColor=none;" vertex="1" parent="1">
          <mxGeometry x="750" y="750" width="40" height="30" as="geometry" />
        </mxCell>
        <mxCell id="z0W3k5TJHpG6s-W8FYQL-81" value="No" style="text;html=1;align=center;verticalAlign=middle;resizable=0;points=[];autosize=1;strokeColor=none;fillColor=none;" vertex="1" parent="1">
          <mxGeometry x="690" y="1040" width="40" height="30" as="geometry" />
        </mxCell>
        <mxCell id="z0W3k5TJHpG6s-W8FYQL-82" value="Yes" style="text;html=1;align=center;verticalAlign=middle;resizable=0;points=[];autosize=1;strokeColor=none;fillColor=none;" vertex="1" parent="1">
          <mxGeometry x="820" y="970" width="40" height="30" as="geometry" />
        </mxCell>
        <mxCell id="z0W3k5TJHpG6s-W8FYQL-83" value="Analization" style="rounded=0;whiteSpace=wrap;html=1;" vertex="1" parent="1">
          <mxGeometry x="640" y="40" width="120" height="40" as="geometry" />
        </mxCell>
        <mxCell id="z0W3k5TJHpG6s-W8FYQL-86" value="" style="endArrow=block;html=1;rounded=0;endFill=0;" edge="1" parent="1">
          <mxGeometry width="50" height="50" relative="1" as="geometry">
            <mxPoint x="699.33" y="80" as="sourcePoint" />
            <mxPoint x="699.33" y="120" as="targetPoint" />
          </mxGeometry>
        </mxCell>
        <mxCell id="z0W3k5TJHpG6s-W8FYQL-88" value="" style="endArrow=block;html=1;rounded=0;endFill=0;" edge="1" parent="1">
          <mxGeometry width="50" height="50" relative="1" as="geometry">
            <mxPoint x="699.33" as="sourcePoint" />
            <mxPoint x="699.33" y="40" as="targetPoint" />
          </mxGeometry>
        </mxCell>
        <mxCell id="z0W3k5TJHpG6s-W8FYQL-89" value="" style="shape=actor;whiteSpace=wrap;html=1;" vertex="1" parent="1">
          <mxGeometry x="1400" y="-50" width="40" height="50" as="geometry" />
        </mxCell>
        <mxCell id="z0W3k5TJHpG6s-W8FYQL-90" value="" style="shape=actor;whiteSpace=wrap;html=1;fillColor=#dae8fc;strokeColor=#6c8ebf;" vertex="1" parent="1">
          <mxGeometry x="1720" y="-50" width="40" height="50" as="geometry" />
        </mxCell>
        <mxCell id="z0W3k5TJHpG6s-W8FYQL-91" value="依頼" style="rounded=0;whiteSpace=wrap;html=1;" vertex="1" parent="1">
          <mxGeometry x="1520" y="-40" width="120" height="40" as="geometry" />
        </mxCell>
        <mxCell id="z0W3k5TJHpG6s-W8FYQL-92" value="" style="shape=actor;whiteSpace=wrap;html=1;fillColor=#d5e8d4;strokeColor=#82b366;" vertex="1" parent="1">
          <mxGeometry x="2040" y="-50" width="40" height="50" as="geometry" />
        </mxCell>
        <mxCell id="z0W3k5TJHpG6s-W8FYQL-93" value="内容チケット" style="rounded=0;whiteSpace=wrap;html=1;" vertex="1" parent="1">
          <mxGeometry x="1840" y="-40" width="120" height="40" as="geometry" />
        </mxCell>
        <mxCell id="z0W3k5TJHpG6s-W8FYQL-94" value="コーディング" style="rounded=0;whiteSpace=wrap;html=1;" vertex="1" parent="1">
          <mxGeometry x="2000" y="120" width="120" height="40" as="geometry" />
        </mxCell>
        <mxCell id="z0W3k5TJHpG6s-W8FYQL-95" value="STGリリース" style="rounded=0;whiteSpace=wrap;html=1;" vertex="1" parent="1">
          <mxGeometry x="2000" y="200" width="120" height="40" as="geometry" />
        </mxCell>
        <mxCell id="z0W3k5TJHpG6s-W8FYQL-96" value="インフラ作業&lt;br&gt;&lt;div&gt;必要？&lt;/div&gt;" style="rhombus;whiteSpace=wrap;html=1;" vertex="1" parent="1">
          <mxGeometry x="2010" y="280" width="100" height="100" as="geometry" />
        </mxCell>
        <mxCell id="z0W3k5TJHpG6s-W8FYQL-97" value="MicroCMS変更&lt;br&gt;リリース" style="rounded=0;whiteSpace=wrap;html=1;" vertex="1" parent="1">
          <mxGeometry x="2000" y="420" width="120" height="40" as="geometry" />
        </mxCell>
        <mxCell id="z0W3k5TJHpG6s-W8FYQL-98" value="HTMLファイル更新&lt;br&gt;&lt;div&gt;&lt;span style=&quot;background-color: transparent; color: light-dark(rgb(0, 0, 0), rgb(255, 255, 255));&quot;&gt;リリース&lt;/span&gt;&lt;/div&gt;" style="rounded=0;whiteSpace=wrap;html=1;" vertex="1" parent="1">
          <mxGeometry x="2160" y="310" width="123" height="40" as="geometry" />
        </mxCell>
        <mxCell id="z0W3k5TJHpG6s-W8FYQL-99" value="確認依頼" style="rounded=0;whiteSpace=wrap;html=1;" vertex="1" parent="1">
          <mxGeometry x="1840" y="420" width="120" height="40" as="geometry" />
        </mxCell>
        <mxCell id="z0W3k5TJHpG6s-W8FYQL-100" value="" style="endArrow=none;html=1;rounded=0;entryX=0.5;entryY=1;entryDx=0;entryDy=0;" edge="1" parent="1" target="z0W3k5TJHpG6s-W8FYQL-90">
          <mxGeometry width="50" height="50" relative="1" as="geometry">
            <mxPoint x="1740" y="1120" as="sourcePoint" />
            <mxPoint x="1740" y="10" as="targetPoint" />
          </mxGeometry>
        </mxCell>
        <mxCell id="z0W3k5TJHpG6s-W8FYQL-101" value="" style="endArrow=none;html=1;rounded=0;entryX=0.5;entryY=1;entryDx=0;entryDy=0;" edge="1" parent="1" target="z0W3k5TJHpG6s-W8FYQL-89">
          <mxGeometry width="50" height="50" relative="1" as="geometry">
            <mxPoint x="1420" y="1120" as="sourcePoint" />
            <mxPoint x="1419.5" y="90" as="targetPoint" />
          </mxGeometry>
        </mxCell>
        <mxCell id="z0W3k5TJHpG6s-W8FYQL-102" value="確認依頼" style="rounded=0;whiteSpace=wrap;html=1;" vertex="1" parent="1">
          <mxGeometry x="1520" y="420" width="120" height="40" as="geometry" />
        </mxCell>
        <mxCell id="z0W3k5TJHpG6s-W8FYQL-103" value="STGリリース確認" style="rounded=0;whiteSpace=wrap;html=1;" vertex="1" parent="1">
          <mxGeometry x="1520" y="530" width="120" height="40" as="geometry" />
        </mxCell>
        <mxCell id="z0W3k5TJHpG6s-W8FYQL-104" value="STGリリース確認" style="rounded=0;whiteSpace=wrap;html=1;" vertex="1" parent="1">
          <mxGeometry x="1840" y="530" width="120" height="40" as="geometry" />
        </mxCell>
        <mxCell id="z0W3k5TJHpG6s-W8FYQL-105" value="インフラ作業&lt;br&gt;&lt;div&gt;必要？&lt;/div&gt;" style="rhombus;whiteSpace=wrap;html=1;" vertex="1" parent="1">
          <mxGeometry x="2010" y="720" width="100" height="100" as="geometry" />
        </mxCell>
        <mxCell id="z0W3k5TJHpG6s-W8FYQL-106" value="修正必要？" style="rhombus;whiteSpace=wrap;html=1;" vertex="1" parent="1">
          <mxGeometry x="2010" y="500" width="100" height="100" as="geometry" />
        </mxCell>
        <mxCell id="z0W3k5TJHpG6s-W8FYQL-107" value="本番リリース" style="rounded=0;whiteSpace=wrap;html=1;" vertex="1" parent="1">
          <mxGeometry x="2000" y="640" width="120" height="40" as="geometry" />
        </mxCell>
        <mxCell id="z0W3k5TJHpG6s-W8FYQL-108" value="HTMLファイル更新&lt;br&gt;&lt;div&gt;&lt;span style=&quot;background-color: transparent; color: light-dark(rgb(0, 0, 0), rgb(255, 255, 255));&quot;&gt;リリース&lt;/span&gt;&lt;/div&gt;" style="rounded=0;whiteSpace=wrap;html=1;" vertex="1" parent="1">
          <mxGeometry x="2160" y="750" width="123" height="40" as="geometry" />
        </mxCell>
        <mxCell id="z0W3k5TJHpG6s-W8FYQL-109" value="MicroCMS変更&lt;br&gt;リリース" style="rounded=0;whiteSpace=wrap;html=1;" vertex="1" parent="1">
          <mxGeometry x="2000" y="860" width="120" height="40" as="geometry" />
        </mxCell>
        <mxCell id="z0W3k5TJHpG6s-W8FYQL-110" value="確認依頼" style="rounded=0;whiteSpace=wrap;html=1;" vertex="1" parent="1">
          <mxGeometry x="1840" y="860" width="120" height="40" as="geometry" />
        </mxCell>
        <mxCell id="z0W3k5TJHpG6s-W8FYQL-111" value="確認依頼" style="rounded=0;whiteSpace=wrap;html=1;" vertex="1" parent="1">
          <mxGeometry x="1520" y="860" width="120" height="40" as="geometry" />
        </mxCell>
        <mxCell id="z0W3k5TJHpG6s-W8FYQL-112" value="本番リリース確認" style="rounded=0;whiteSpace=wrap;html=1;" vertex="1" parent="1">
          <mxGeometry x="1520" y="970" width="120" height="40" as="geometry" />
        </mxCell>
        <mxCell id="z0W3k5TJHpG6s-W8FYQL-113" value="本番リリース確認" style="rounded=0;whiteSpace=wrap;html=1;" vertex="1" parent="1">
          <mxGeometry x="1840" y="970" width="120" height="40" as="geometry" />
        </mxCell>
        <mxCell id="z0W3k5TJHpG6s-W8FYQL-114" value="修正必要？" style="rhombus;whiteSpace=wrap;html=1;" vertex="1" parent="1">
          <mxGeometry x="2010" y="940" width="100" height="100" as="geometry" />
        </mxCell>
        <mxCell id="z0W3k5TJHpG6s-W8FYQL-115" value="" style="endArrow=block;html=1;rounded=0;endFill=0;entryX=0;entryY=0.5;entryDx=0;entryDy=0;" edge="1" parent="1" target="z0W3k5TJHpG6s-W8FYQL-91">
          <mxGeometry width="50" height="50" relative="1" as="geometry">
            <mxPoint x="1440" y="-20" as="sourcePoint" />
            <mxPoint x="1510" y="-20" as="targetPoint" />
          </mxGeometry>
        </mxCell>
        <mxCell id="z0W3k5TJHpG6s-W8FYQL-116" value="" style="endArrow=block;html=1;rounded=0;endFill=0;entryX=0;entryY=0.5;entryDx=0;entryDy=0;" edge="1" parent="1">
          <mxGeometry width="50" height="50" relative="1" as="geometry">
            <mxPoint x="1640" y="-20.529999999999973" as="sourcePoint" />
            <mxPoint x="1720" y="-20.529999999999973" as="targetPoint" />
          </mxGeometry>
        </mxCell>
        <mxCell id="z0W3k5TJHpG6s-W8FYQL-117" value="" style="endArrow=block;html=1;rounded=0;endFill=0;entryX=0;entryY=0.5;entryDx=0;entryDy=0;" edge="1" parent="1">
          <mxGeometry width="50" height="50" relative="1" as="geometry">
            <mxPoint x="1760" y="-20.529999999999973" as="sourcePoint" />
            <mxPoint x="1840" y="-20.529999999999973" as="targetPoint" />
          </mxGeometry>
        </mxCell>
        <mxCell id="z0W3k5TJHpG6s-W8FYQL-118" value="" style="endArrow=block;html=1;rounded=0;endFill=0;entryX=0;entryY=0.5;entryDx=0;entryDy=0;" edge="1" parent="1">
          <mxGeometry width="50" height="50" relative="1" as="geometry">
            <mxPoint x="1960" y="-20.529999999999973" as="sourcePoint" />
            <mxPoint x="2040" y="-20.529999999999973" as="targetPoint" />
          </mxGeometry>
        </mxCell>
        <mxCell id="z0W3k5TJHpG6s-W8FYQL-119" value="" style="endArrow=block;html=1;rounded=0;endFill=0;" edge="1" parent="1">
          <mxGeometry width="50" height="50" relative="1" as="geometry">
            <mxPoint x="2059.4700000000003" y="160" as="sourcePoint" />
            <mxPoint x="2059.4700000000003" y="200" as="targetPoint" />
          </mxGeometry>
        </mxCell>
        <mxCell id="z0W3k5TJHpG6s-W8FYQL-120" value="" style="endArrow=block;html=1;rounded=0;endFill=0;" edge="1" parent="1">
          <mxGeometry width="50" height="50" relative="1" as="geometry">
            <mxPoint x="2059.4700000000003" y="240" as="sourcePoint" />
            <mxPoint x="2059.4700000000003" y="280" as="targetPoint" />
          </mxGeometry>
        </mxCell>
        <mxCell id="z0W3k5TJHpG6s-W8FYQL-121" value="" style="endArrow=block;html=1;rounded=0;endFill=0;" edge="1" parent="1">
          <mxGeometry width="50" height="50" relative="1" as="geometry">
            <mxPoint x="2059.4700000000003" y="380" as="sourcePoint" />
            <mxPoint x="2059.4700000000003" y="420" as="targetPoint" />
          </mxGeometry>
        </mxCell>
        <mxCell id="z0W3k5TJHpG6s-W8FYQL-122" value="" style="endArrow=block;html=1;rounded=0;endFill=0;" edge="1" parent="1">
          <mxGeometry width="50" height="50" relative="1" as="geometry">
            <mxPoint x="2059.4700000000003" y="460" as="sourcePoint" />
            <mxPoint x="2059.4700000000003" y="500" as="targetPoint" />
          </mxGeometry>
        </mxCell>
        <mxCell id="z0W3k5TJHpG6s-W8FYQL-123" value="" style="endArrow=block;html=1;rounded=0;endFill=0;exitX=0;exitY=0.5;exitDx=0;exitDy=0;entryX=1;entryY=0.5;entryDx=0;entryDy=0;" edge="1" parent="1" source="z0W3k5TJHpG6s-W8FYQL-97" target="z0W3k5TJHpG6s-W8FYQL-99">
          <mxGeometry width="50" height="50" relative="1" as="geometry">
            <mxPoint x="2160" y="460" as="sourcePoint" />
            <mxPoint x="2160" y="500" as="targetPoint" />
          </mxGeometry>
        </mxCell>
        <mxCell id="z0W3k5TJHpG6s-W8FYQL-124" value="" style="endArrow=block;html=1;rounded=0;endFill=0;exitX=0;exitY=0.5;exitDx=0;exitDy=0;" edge="1" parent="1" source="z0W3k5TJHpG6s-W8FYQL-99">
          <mxGeometry width="50" height="50" relative="1" as="geometry">
            <mxPoint x="2230" y="420" as="sourcePoint" />
            <mxPoint x="1740" y="440" as="targetPoint" />
          </mxGeometry>
        </mxCell>
        <mxCell id="z0W3k5TJHpG6s-W8FYQL-125" value="" style="endArrow=block;html=1;rounded=0;endFill=0;exitX=0;exitY=0.5;exitDx=0;exitDy=0;" edge="1" parent="1">
          <mxGeometry width="50" height="50" relative="1" as="geometry">
            <mxPoint x="1740" y="439.47" as="sourcePoint" />
            <mxPoint x="1640" y="439.47" as="targetPoint" />
          </mxGeometry>
        </mxCell>
        <mxCell id="z0W3k5TJHpG6s-W8FYQL-126" value="" style="endArrow=block;html=1;rounded=0;endFill=0;exitX=0;exitY=0.5;exitDx=0;exitDy=0;" edge="1" parent="1">
          <mxGeometry width="50" height="50" relative="1" as="geometry">
            <mxPoint x="1520" y="439.47" as="sourcePoint" />
            <mxPoint x="1420" y="439.47" as="targetPoint" />
          </mxGeometry>
        </mxCell>
        <mxCell id="z0W3k5TJHpG6s-W8FYQL-127" value="" style="endArrow=block;html=1;rounded=0;endFill=0;entryX=0;entryY=0.5;entryDx=0;entryDy=0;" edge="1" parent="1" target="z0W3k5TJHpG6s-W8FYQL-103">
          <mxGeometry width="50" height="50" relative="1" as="geometry">
            <mxPoint x="1420" y="550" as="sourcePoint" />
            <mxPoint x="1660" y="350" as="targetPoint" />
          </mxGeometry>
        </mxCell>
        <mxCell id="z0W3k5TJHpG6s-W8FYQL-128" value="" style="endArrow=block;html=1;rounded=0;endFill=0;entryX=0;entryY=0.5;entryDx=0;entryDy=0;" edge="1" parent="1">
          <mxGeometry width="50" height="50" relative="1" as="geometry">
            <mxPoint x="1640" y="549.47" as="sourcePoint" />
            <mxPoint x="1740" y="549.47" as="targetPoint" />
          </mxGeometry>
        </mxCell>
        <mxCell id="z0W3k5TJHpG6s-W8FYQL-129" value="" style="endArrow=block;html=1;rounded=0;endFill=0;entryX=0;entryY=0.5;entryDx=0;entryDy=0;" edge="1" parent="1">
          <mxGeometry width="50" height="50" relative="1" as="geometry">
            <mxPoint x="1740" y="549.47" as="sourcePoint" />
            <mxPoint x="1840" y="549.47" as="targetPoint" />
          </mxGeometry>
        </mxCell>
        <mxCell id="z0W3k5TJHpG6s-W8FYQL-130" value="" style="endArrow=block;html=1;rounded=0;endFill=0;exitX=1;exitY=0.5;exitDx=0;exitDy=0;entryX=0;entryY=0.5;entryDx=0;entryDy=0;" edge="1" parent="1" source="z0W3k5TJHpG6s-W8FYQL-104" target="z0W3k5TJHpG6s-W8FYQL-106">
          <mxGeometry width="50" height="50" relative="1" as="geometry">
            <mxPoint x="2020" y="510" as="sourcePoint" />
            <mxPoint x="1980" y="510" as="targetPoint" />
          </mxGeometry>
        </mxCell>
        <mxCell id="z0W3k5TJHpG6s-W8FYQL-131" value="" style="endArrow=block;html=1;rounded=0;endFill=0;exitX=1;exitY=0.5;exitDx=0;exitDy=0;entryX=1;entryY=0.5;entryDx=0;entryDy=0;" edge="1" parent="1" source="z0W3k5TJHpG6s-W8FYQL-106" target="z0W3k5TJHpG6s-W8FYQL-95">
          <mxGeometry width="50" height="50" relative="1" as="geometry">
            <mxPoint x="2230" y="530" as="sourcePoint" />
            <mxPoint x="2190" y="530" as="targetPoint" />
            <Array as="points">
              <mxPoint x="2320" y="550" />
              <mxPoint x="2320" y="220" />
            </Array>
          </mxGeometry>
        </mxCell>
        <mxCell id="z0W3k5TJHpG6s-W8FYQL-132" value="" style="endArrow=block;html=1;rounded=0;endFill=0;exitX=1;exitY=0.5;exitDx=0;exitDy=0;entryX=0;entryY=0.5;entryDx=0;entryDy=0;" edge="1" parent="1" source="z0W3k5TJHpG6s-W8FYQL-96" target="z0W3k5TJHpG6s-W8FYQL-98">
          <mxGeometry width="50" height="50" relative="1" as="geometry">
            <mxPoint x="2230" y="420" as="sourcePoint" />
            <mxPoint x="2190" y="420" as="targetPoint" />
          </mxGeometry>
        </mxCell>
        <mxCell id="z0W3k5TJHpG6s-W8FYQL-133" value="終わり" style="rounded=1;whiteSpace=wrap;html=1;" vertex="1" parent="1">
          <mxGeometry x="2000" y="1080" width="120" height="40" as="geometry" />
        </mxCell>
        <mxCell id="z0W3k5TJHpG6s-W8FYQL-134" value="" style="endArrow=block;html=1;rounded=0;endFill=0;" edge="1" parent="1">
          <mxGeometry width="50" height="50" relative="1" as="geometry">
            <mxPoint x="2059.38" y="600" as="sourcePoint" />
            <mxPoint x="2059.38" y="640" as="targetPoint" />
          </mxGeometry>
        </mxCell>
        <mxCell id="z0W3k5TJHpG6s-W8FYQL-135" value="" style="endArrow=block;html=1;rounded=0;endFill=0;" edge="1" parent="1">
          <mxGeometry width="50" height="50" relative="1" as="geometry">
            <mxPoint x="2059.38" y="680" as="sourcePoint" />
            <mxPoint x="2059.38" y="720" as="targetPoint" />
          </mxGeometry>
        </mxCell>
        <mxCell id="z0W3k5TJHpG6s-W8FYQL-136" value="" style="endArrow=block;html=1;rounded=0;endFill=0;" edge="1" parent="1">
          <mxGeometry width="50" height="50" relative="1" as="geometry">
            <mxPoint x="2059.38" y="820" as="sourcePoint" />
            <mxPoint x="2059.38" y="860" as="targetPoint" />
          </mxGeometry>
        </mxCell>
        <mxCell id="z0W3k5TJHpG6s-W8FYQL-137" value="" style="endArrow=block;html=1;rounded=0;endFill=0;" edge="1" parent="1">
          <mxGeometry width="50" height="50" relative="1" as="geometry">
            <mxPoint x="2059.38" y="900" as="sourcePoint" />
            <mxPoint x="2059.38" y="940" as="targetPoint" />
          </mxGeometry>
        </mxCell>
        <mxCell id="z0W3k5TJHpG6s-W8FYQL-138" value="" style="endArrow=block;html=1;rounded=0;endFill=0;" edge="1" parent="1">
          <mxGeometry width="50" height="50" relative="1" as="geometry">
            <mxPoint x="2059.38" y="1040" as="sourcePoint" />
            <mxPoint x="2059.38" y="1080" as="targetPoint" />
          </mxGeometry>
        </mxCell>
        <mxCell id="z0W3k5TJHpG6s-W8FYQL-139" value="" style="endArrow=block;html=1;rounded=0;endFill=0;exitX=1;exitY=0.5;exitDx=0;exitDy=0;entryX=1;entryY=0.5;entryDx=0;entryDy=0;" edge="1" parent="1" source="z0W3k5TJHpG6s-W8FYQL-114" target="z0W3k5TJHpG6s-W8FYQL-107">
          <mxGeometry width="50" height="50" relative="1" as="geometry">
            <mxPoint x="2270" y="980" as="sourcePoint" />
            <mxPoint x="2270" y="1020" as="targetPoint" />
            <Array as="points">
              <mxPoint x="2320" y="990" />
              <mxPoint x="2320" y="660" />
            </Array>
          </mxGeometry>
        </mxCell>
        <mxCell id="z0W3k5TJHpG6s-W8FYQL-140" value="" style="endArrow=block;html=1;rounded=0;endFill=0;exitX=0.5;exitY=1;exitDx=0;exitDy=0;entryX=1;entryY=0.5;entryDx=0;entryDy=0;" edge="1" parent="1" source="z0W3k5TJHpG6s-W8FYQL-98" target="z0W3k5TJHpG6s-W8FYQL-97">
          <mxGeometry width="50" height="50" relative="1" as="geometry">
            <mxPoint x="2200" y="400" as="sourcePoint" />
            <mxPoint x="2250" y="400" as="targetPoint" />
            <Array as="points">
              <mxPoint x="2222" y="440" />
            </Array>
          </mxGeometry>
        </mxCell>
        <mxCell id="z0W3k5TJHpG6s-W8FYQL-141" value="" style="endArrow=block;html=1;rounded=0;endFill=0;entryX=1;entryY=0.5;entryDx=0;entryDy=0;exitX=0;exitY=0.5;exitDx=0;exitDy=0;" edge="1" parent="1" source="z0W3k5TJHpG6s-W8FYQL-109" target="z0W3k5TJHpG6s-W8FYQL-110">
          <mxGeometry width="50" height="50" relative="1" as="geometry">
            <mxPoint x="2200" y="890" as="sourcePoint" />
            <mxPoint x="2200" y="930" as="targetPoint" />
          </mxGeometry>
        </mxCell>
        <mxCell id="z0W3k5TJHpG6s-W8FYQL-142" value="" style="endArrow=block;html=1;rounded=0;endFill=0;exitX=0;exitY=0.5;exitDx=0;exitDy=0;" edge="1" parent="1" source="z0W3k5TJHpG6s-W8FYQL-110">
          <mxGeometry width="50" height="50" relative="1" as="geometry">
            <mxPoint x="2230" y="890" as="sourcePoint" />
            <mxPoint x="1740" y="880" as="targetPoint" />
          </mxGeometry>
        </mxCell>
        <mxCell id="z0W3k5TJHpG6s-W8FYQL-143" value="" style="endArrow=block;html=1;rounded=0;endFill=0;exitX=0;exitY=0.5;exitDx=0;exitDy=0;" edge="1" parent="1">
          <mxGeometry width="50" height="50" relative="1" as="geometry">
            <mxPoint x="1740" y="879.3800000000001" as="sourcePoint" />
            <mxPoint x="1640" y="879.3800000000001" as="targetPoint" />
          </mxGeometry>
        </mxCell>
        <mxCell id="z0W3k5TJHpG6s-W8FYQL-144" value="" style="endArrow=block;html=1;rounded=0;endFill=0;exitX=0;exitY=0.5;exitDx=0;exitDy=0;" edge="1" parent="1">
          <mxGeometry width="50" height="50" relative="1" as="geometry">
            <mxPoint x="1520" y="879.3800000000001" as="sourcePoint" />
            <mxPoint x="1420" y="879.3800000000001" as="targetPoint" />
          </mxGeometry>
        </mxCell>
        <mxCell id="z0W3k5TJHpG6s-W8FYQL-145" value="" style="endArrow=block;html=1;rounded=0;endFill=0;entryX=0;entryY=0.5;entryDx=0;entryDy=0;" edge="1" parent="1">
          <mxGeometry width="50" height="50" relative="1" as="geometry">
            <mxPoint x="1420" y="989.3800000000001" as="sourcePoint" />
            <mxPoint x="1520" y="989.3800000000001" as="targetPoint" />
          </mxGeometry>
        </mxCell>
        <mxCell id="z0W3k5TJHpG6s-W8FYQL-146" value="" style="endArrow=block;html=1;rounded=0;endFill=0;entryX=0;entryY=0.5;entryDx=0;entryDy=0;" edge="1" parent="1">
          <mxGeometry width="50" height="50" relative="1" as="geometry">
            <mxPoint x="1640" y="989.3800000000001" as="sourcePoint" />
            <mxPoint x="1740" y="989.3800000000001" as="targetPoint" />
          </mxGeometry>
        </mxCell>
        <mxCell id="z0W3k5TJHpG6s-W8FYQL-147" value="" style="endArrow=block;html=1;rounded=0;endFill=0;entryX=0;entryY=0.5;entryDx=0;entryDy=0;" edge="1" parent="1">
          <mxGeometry width="50" height="50" relative="1" as="geometry">
            <mxPoint x="1740" y="989.3800000000001" as="sourcePoint" />
            <mxPoint x="1840" y="989.3800000000001" as="targetPoint" />
          </mxGeometry>
        </mxCell>
        <mxCell id="z0W3k5TJHpG6s-W8FYQL-148" value="" style="endArrow=block;html=1;rounded=0;endFill=0;exitX=1;exitY=0.5;exitDx=0;exitDy=0;entryX=0;entryY=0.5;entryDx=0;entryDy=0;" edge="1" parent="1">
          <mxGeometry width="50" height="50" relative="1" as="geometry">
            <mxPoint x="1960" y="989.3800000000001" as="sourcePoint" />
            <mxPoint x="2010" y="989.3800000000001" as="targetPoint" />
          </mxGeometry>
        </mxCell>
        <mxCell id="z0W3k5TJHpG6s-W8FYQL-149" value="" style="endArrow=block;html=1;rounded=0;endFill=0;exitX=1;exitY=0.5;exitDx=0;exitDy=0;entryX=0;entryY=0.5;entryDx=0;entryDy=0;" edge="1" parent="1">
          <mxGeometry width="50" height="50" relative="1" as="geometry">
            <mxPoint x="2110" y="769.3699999999999" as="sourcePoint" />
            <mxPoint x="2160" y="769.3699999999999" as="targetPoint" />
          </mxGeometry>
        </mxCell>
        <mxCell id="z0W3k5TJHpG6s-W8FYQL-150" value="" style="endArrow=block;html=1;rounded=0;endFill=0;exitX=0.5;exitY=1;exitDx=0;exitDy=0;entryX=1;entryY=0.5;entryDx=0;entryDy=0;" edge="1" parent="1" source="z0W3k5TJHpG6s-W8FYQL-108" target="z0W3k5TJHpG6s-W8FYQL-109">
          <mxGeometry width="50" height="50" relative="1" as="geometry">
            <mxPoint x="2190" y="860" as="sourcePoint" />
            <mxPoint x="2240" y="860" as="targetPoint" />
            <Array as="points">
              <mxPoint x="2222" y="880" />
            </Array>
          </mxGeometry>
        </mxCell>
        <mxCell id="z0W3k5TJHpG6s-W8FYQL-151" value="No" style="text;html=1;align=center;verticalAlign=middle;resizable=0;points=[];autosize=1;strokeColor=none;fillColor=none;" vertex="1" parent="1">
          <mxGeometry x="2050" y="380" width="40" height="30" as="geometry" />
        </mxCell>
        <mxCell id="z0W3k5TJHpG6s-W8FYQL-152" value="Yes" style="text;html=1;align=center;verticalAlign=middle;resizable=0;points=[];autosize=1;strokeColor=none;fillColor=none;" vertex="1" parent="1">
          <mxGeometry x="2110" y="310" width="40" height="30" as="geometry" />
        </mxCell>
        <mxCell id="z0W3k5TJHpG6s-W8FYQL-153" value="No" style="text;html=1;align=center;verticalAlign=middle;resizable=0;points=[];autosize=1;strokeColor=none;fillColor=none;" vertex="1" parent="1">
          <mxGeometry x="2050" y="600" width="40" height="30" as="geometry" />
        </mxCell>
        <mxCell id="z0W3k5TJHpG6s-W8FYQL-154" value="Yes" style="text;html=1;align=center;verticalAlign=middle;resizable=0;points=[];autosize=1;strokeColor=none;fillColor=none;" vertex="1" parent="1">
          <mxGeometry x="2180" y="530" width="40" height="30" as="geometry" />
        </mxCell>
        <mxCell id="z0W3k5TJHpG6s-W8FYQL-155" value="No" style="text;html=1;align=center;verticalAlign=middle;resizable=0;points=[];autosize=1;strokeColor=none;fillColor=none;" vertex="1" parent="1">
          <mxGeometry x="2050" y="820" width="40" height="30" as="geometry" />
        </mxCell>
        <mxCell id="z0W3k5TJHpG6s-W8FYQL-156" value="Yes" style="text;html=1;align=center;verticalAlign=middle;resizable=0;points=[];autosize=1;strokeColor=none;fillColor=none;" vertex="1" parent="1">
          <mxGeometry x="2110" y="750" width="40" height="30" as="geometry" />
        </mxCell>
        <mxCell id="z0W3k5TJHpG6s-W8FYQL-157" value="No" style="text;html=1;align=center;verticalAlign=middle;resizable=0;points=[];autosize=1;strokeColor=none;fillColor=none;" vertex="1" parent="1">
          <mxGeometry x="2050" y="1040" width="40" height="30" as="geometry" />
        </mxCell>
        <mxCell id="z0W3k5TJHpG6s-W8FYQL-158" value="Yes" style="text;html=1;align=center;verticalAlign=middle;resizable=0;points=[];autosize=1;strokeColor=none;fillColor=none;" vertex="1" parent="1">
          <mxGeometry x="2180" y="970" width="40" height="30" as="geometry" />
        </mxCell>
        <mxCell id="z0W3k5TJHpG6s-W8FYQL-159" value="翻訳" style="rounded=0;whiteSpace=wrap;html=1;" vertex="1" parent="1">
          <mxGeometry x="2000" y="40" width="120" height="40" as="geometry" />
        </mxCell>
        <mxCell id="z0W3k5TJHpG6s-W8FYQL-160" value="" style="endArrow=block;html=1;rounded=0;endFill=0;" edge="1" parent="1">
          <mxGeometry width="50" height="50" relative="1" as="geometry">
            <mxPoint x="2059.33" y="80" as="sourcePoint" />
            <mxPoint x="2059.33" y="120" as="targetPoint" />
          </mxGeometry>
        </mxCell>
        <mxCell id="z0W3k5TJHpG6s-W8FYQL-161" value="" style="endArrow=block;html=1;rounded=0;endFill=0;" edge="1" parent="1">
          <mxGeometry width="50" height="50" relative="1" as="geometry">
            <mxPoint x="2059.33" as="sourcePoint" />
            <mxPoint x="2059.33" y="40" as="targetPoint" />
          </mxGeometry>
        </mxCell>
        <mxCell id="z0W3k5TJHpG6s-W8FYQL-162" value="English" style="text;html=1;align=center;verticalAlign=middle;resizable=0;points=[];autosize=1;strokeColor=none;fillColor=none;fontSize=20;" vertex="1" parent="1">
          <mxGeometry x="30" y="-115" width="90" height="40" as="geometry" />
        </mxCell>
        <mxCell id="z0W3k5TJHpG6s-W8FYQL-163" value="日本語" style="text;html=1;align=center;verticalAlign=middle;resizable=0;points=[];autosize=1;strokeColor=none;fillColor=none;fontSize=20;" vertex="1" parent="1">
          <mxGeometry x="1395" y="-115" width="80" height="40" as="geometry" />
        </mxCell>
      </root>
    </mxGraphModel>
  </diagram>
</mxfile>
